<svg width="107" height="28" viewBox="0 0 107 28" fill="none" xmlns="http://www.w3.org/2000/svg"><path d="M4 14H0V3C0 1.89543 0.895431 1 2 1C3.10457 1 4 1.89543 4 3V14Z" fill="#1447FA"></path><path d="M4 25C4 26.1046 3.10457 27 2 27C0.895431 27 0 26.1046 0 25V14H4V25Z" fill="#FFDE3B"></path><path d="M17.475 13.45C17.475 12.45 17.7167 11.5583 18.2 10.775C18.7 9.97505 19.3667 9.34172 20.2 8.87505C21.0333 8.40838 21.95 8.17505 22.95 8.17505C23.95 8.17505 24.6917 8.34172 25.175 8.67505C25.675 8.99172 25.8667 9.37505 25.75 9.82505C25.7 10.0583 25.6 10.2417 25.45 10.375C25.3167 10.4917 25.1583 10.5667 24.975 10.6C24.7917 10.6333 24.5917 10.625 24.375 10.575C23.3083 10.3583 22.35 10.3417 21.5 10.525C20.65 10.7083 19.975 11.05 19.475 11.55C18.9917 12.05 18.75 12.6833 18.75 13.45H17.475ZM17.5 22C17.1 22 16.7917 21.9 16.575 21.7C16.3583 21.4833 16.25 21.1667 16.25 20.75V9.57505C16.25 9.17505 16.3583 8.86672 16.575 8.65005C16.7917 8.43338 17.1 8.32505 17.5 8.32505C17.9167 8.32505 18.225 8.43338 18.425 8.65005C18.6417 8.85005 18.75 9.15838 18.75 9.57505V20.75C18.75 21.15 18.6417 21.4583 18.425 21.675C18.225 21.8917 17.9167 22 17.5 22ZM33.0822 22.1C31.6989 22.1 30.4656 21.8083 29.3822 21.225C28.3156 20.625 27.4739 19.8083 26.8572 18.775C26.2572 17.725 25.9572 16.525 25.9572 15.175C25.9572 13.8083 26.2406 12.6083 26.8072 11.575C27.3906 10.525 28.1906 9.70838 29.2072 9.12505C30.2239 8.52505 31.3906 8.22505 32.7072 8.22505C34.0072 8.22505 35.1239 8.51672 36.0572 9.10005C36.9906 9.66672 37.6989 10.4583 38.1822 11.475C38.6822 12.475 38.9322 13.6333 38.9322 14.95C38.9322 15.2667 38.8239 15.5333 38.6072 15.75C38.3906 15.95 38.1156 16.05 37.7822 16.05H27.7072V14.05H37.7072L36.6822 14.75C36.6656 13.9167 36.4989 13.175 36.1822 12.525C35.8656 11.8583 35.4156 11.3333 34.8322 10.95C34.2489 10.5667 33.5406 10.375 32.7072 10.375C31.7572 10.375 30.9406 10.5833 30.2572 11C29.5906 11.4167 29.0822 11.9917 28.7322 12.725C28.3822 13.4417 28.2072 14.2583 28.2072 15.175C28.2072 16.0917 28.4156 16.9083 28.8322 17.625C29.2489 18.3417 29.8239 18.9083 30.5572 19.325C31.2906 19.7417 32.1322 19.95 33.0822 19.95C33.5989 19.95 34.1239 19.8583 34.6572 19.675C35.2072 19.475 35.6489 19.25 35.9822 19C36.2322 18.8167 36.4989 18.725 36.7822 18.725C37.0822 18.7083 37.3406 18.7917 37.5572 18.975C37.8406 19.225 37.9906 19.5 38.0072 19.8C38.0239 20.1 37.8906 20.3583 37.6072 20.575C37.0406 21.025 36.3322 21.3917 35.4822 21.675C34.6489 21.9583 33.8489 22.1 33.0822 22.1ZM52.9846 22.025C52.6179 22.025 52.3096 21.9083 52.0596 21.675C51.8262 21.425 51.7096 21.1167 51.7096 20.75V14.6C51.7096 13.65 51.5346 12.875 51.1846 12.275C50.8346 11.675 50.3596 11.2333 49.7596 10.95C49.1762 10.65 48.5012 10.5 47.7346 10.5C47.0346 10.5 46.4012 10.6417 45.8346 10.925C45.2679 11.2083 44.8179 11.5917 44.4846 12.075C44.1512 12.5417 43.9846 13.0833 43.9846 13.7H42.4096C42.4096 12.65 42.6596 11.7167 43.1596 10.9C43.6762 10.0667 44.3762 9.40838 45.2596 8.92505C46.1429 8.44172 47.1346 8.20005 48.2346 8.20005C49.3846 8.20005 50.4096 8.45005 51.3096 8.95005C52.2262 9.43338 52.9429 10.15 53.4596 11.1C53.9929 12.05 54.2596 13.2167 54.2596 14.6V20.75C54.2596 21.1167 54.1346 21.425 53.8846 21.675C53.6512 21.9083 53.3512 22.025 52.9846 22.025ZM42.7096 22.025C42.3429 22.025 42.0346 21.9083 41.7846 21.675C41.5512 21.425 41.4346 21.1167 41.4346 20.75V9.60005C41.4346 9.21672 41.5512 8.90838 41.7846 8.67505C42.0346 8.44172 42.3429 8.32505 42.7096 8.32505C43.0929 8.32505 43.4012 8.44172 43.6346 8.67505C43.8679 8.90838 43.9846 9.21672 43.9846 9.60005V20.75C43.9846 21.1167 43.8679 21.425 43.6346 21.675C43.4012 21.9083 43.0929 22.025 42.7096 22.025Z" fill="white"></path><path d="M61.3949 22C60.5616 22 59.8116 21.7917 59.1449 21.375C58.4783 20.9417 57.9533 20.3583 57.5699 19.625C57.1866 18.8917 56.9949 18.0667 56.9949 17.15V5.22498C56.9949 4.85831 57.1116 4.55831 57.3449 4.32498C57.5783 4.09165 57.8783 3.97498 58.2449 3.97498C58.6116 3.97498 58.9116 4.09165 59.1449 4.32498C59.3783 4.55831 59.4949 4.85831 59.4949 5.22498V17.15C59.4949 17.8167 59.6783 18.375 60.0449 18.825C60.4116 19.275 60.8616 19.5 61.3949 19.5H62.2449C62.5449 19.5 62.7949 19.6167 62.9949 19.85C63.2116 20.0833 63.3199 20.3833 63.3199 20.75C63.3199 21.1167 63.1783 21.4167 62.8949 21.65C62.6283 21.8833 62.2783 22 61.8449 22H61.3949ZM55.8449 10.975C55.4949 10.975 55.2116 10.875 54.9949 10.675C54.7783 10.475 54.6699 10.225 54.6699 9.92498C54.6699 9.59165 54.7783 9.32498 54.9949 9.12498C55.2116 8.92498 55.4949 8.82498 55.8449 8.82498H61.6199C61.9699 8.82498 62.2533 8.92498 62.4699 9.12498C62.6866 9.32498 62.7949 9.59165 62.7949 9.92498C62.7949 10.225 62.6866 10.475 62.4699 10.675C62.2533 10.875 61.9699 10.975 61.6199 10.975H55.8449ZM67.0041 21.525L65.3041 20.025L73.8041 8.79998L75.4791 10.3L67.0041 21.525ZM66.2541 22C65.4708 22 65.0791 21.6083 65.0791 20.825C65.0791 20.0417 65.4708 19.65 66.2541 19.65H74.7791C75.5624 19.65 75.9541 20.0417 75.9541 20.825C75.9541 21.6083 75.5624 22 74.7791 22H66.2541ZM66.0041 10.675C65.2208 10.675 64.8291 10.2833 64.8291 9.49998C64.8291 8.71665 65.2208 8.32498 66.0041 8.32498H74.5291C75.3124 8.32498 75.7041 8.71665 75.7041 9.49998C75.7041 10.2833 75.3124 10.675 74.5291 10.675H66.0041ZM79.9801 22C79.6134 22 79.3051 21.8833 79.0551 21.65C78.8217 21.4 78.7051 21.0917 78.7051 20.725V9.59998C78.7051 9.21665 78.8217 8.90831 79.0551 8.67498C79.3051 8.44165 79.6134 8.32498 79.9801 8.32498C80.3634 8.32498 80.6717 8.44165 80.9051 8.67498C81.1384 8.90831 81.2551 9.21665 81.2551 9.59998V20.725C81.2551 21.0917 81.1384 21.4 80.9051 21.65C80.6717 21.8833 80.3634 22 79.9801 22ZM79.9801 6.09998C79.5301 6.09998 79.1384 5.94165 78.8051 5.62498C78.4884 5.29165 78.3301 4.89998 78.3301 4.44998C78.3301 3.99998 78.4884 3.61665 78.8051 3.29998C79.1384 2.96665 79.5301 2.79998 79.9801 2.79998C80.4301 2.79998 80.8134 2.96665 81.1301 3.29998C81.4634 3.61665 81.6301 3.99998 81.6301 4.44998C81.6301 4.89998 81.4634 5.29165 81.1301 5.62498C80.8134 5.94165 80.4301 6.09998 79.9801 6.09998ZM88.499 22C87.7657 22 87.1157 21.8 86.549 21.4C85.9824 21 85.5407 20.4583 85.224 19.775C84.9074 19.075 84.749 18.275 84.749 17.375V3.72498C84.749 3.35831 84.8657 3.05831 85.099 2.82498C85.3324 2.59165 85.6324 2.47498 85.999 2.47498C86.3657 2.47498 86.6657 2.59165 86.899 2.82498C87.1324 3.05831 87.249 3.35831 87.249 3.72498V17.375C87.249 17.9917 87.3657 18.5 87.599 18.9C87.8324 19.3 88.1324 19.5 88.499 19.5H89.124C89.4574 19.5 89.724 19.6167 89.924 19.85C90.1407 20.0833 90.249 20.3833 90.249 20.75C90.249 21.1167 90.0907 21.4167 89.774 21.65C89.4574 21.8833 89.049 22 88.549 22H88.499ZM96.9373 22.1C95.7206 22.1 94.629 21.8 93.6623 21.2C92.6956 20.5833 91.929 19.7583 91.3623 18.725C90.8123 17.675 90.5373 16.4917 90.5373 15.175C90.5373 13.8583 90.8373 12.675 91.4373 11.625C92.054 10.575 92.879 9.74998 93.9123 9.14998C94.9623 8.53331 96.1373 8.22498 97.4373 8.22498C98.7373 8.22498 99.904 8.53331 100.937 9.14998C101.971 9.74998 102.787 10.575 103.387 11.625C104.004 12.675 104.312 13.8583 104.312 15.175H103.337C103.337 16.4917 103.054 17.675 102.487 18.725C101.937 19.7583 101.179 20.5833 100.212 21.2C99.2456 21.8 98.154 22.1 96.9373 22.1ZM97.4373 19.85C98.2873 19.85 99.0456 19.65 99.7123 19.25C100.379 18.8333 100.904 18.275 101.287 17.575C101.671 16.8583 101.862 16.0583 101.862 15.175C101.862 14.275 101.671 13.475 101.287 12.775C100.904 12.0583 100.379 11.5 99.7123 11.1C99.0456 10.6833 98.2873 10.475 97.4373 10.475C96.604 10.475 95.8456 10.6833 95.1623 11.1C94.4956 11.5 93.9623 12.0583 93.5623 12.775C93.179 13.475 92.9873 14.275 92.9873 15.175C92.9873 16.0583 93.179 16.8583 93.5623 17.575C93.9623 18.275 94.4956 18.8333 95.1623 19.25C95.8456 19.65 96.604 19.85 97.4373 19.85ZM103.037 22.025C102.671 22.025 102.362 21.9083 102.112 21.675C101.879 21.425 101.762 21.1167 101.762 20.75V16.925L102.237 14.275L104.312 15.175V20.75C104.312 21.1167 104.187 21.425 103.937 21.675C103.704 21.9083 103.404 22.025 103.037 22.025Z" fill="white"></path><path d="M54 8H57V11L56.4054 11.105C55.2192 11.3146 54.1183 10.4357 54.0598 9.23253L54 8Z" fill="#283149"></path></svg>